<?xml version="1.0" encoding="utf-8"?>
<!-- Generator: Adobe Illustrator 19.1.0, SVG Export Plug-In . SVG Version: 6.00 Build 0)  -->
<svg version="1.1" id="Ebene_1" xmlns="http://www.w3.org/2000/svg" xmlns:xlink="http://www.w3.org/1999/xlink" x="0px" y="0px"
	 viewBox="0 0 51 36.8" style="enable-background:new 0 0 51 36.8;" xml:space="preserve">
<g>
	<path d="M2.6,36.6l0.9-5.2l2,5.2h0.9l2-5.2l0.8,5.2h2.2l-1.4-9H7.7l-1.8,4.8l-1.7-4.8H1.9l-1.6,9H2.6L2.6,36.6z M12.3,30.4V34
		c0,1.6,1.1,2.9,3.1,2.9c2.1,0,3.1-1.2,3.1-2.9v-3.6h-2.1v3.4c0,0.8-0.4,1.2-1.1,1.2c-0.7,0-1-0.5-1-1.2v-3.4H12.3L12.3,30.4z
		 M24.3,30.8c-0.4-0.3-1.2-0.5-1.9-0.5c-1.6,0-2.6,0.9-2.6,2.1c0,1,0.8,1.5,1.7,1.7c0.5,0.1,0.9,0.2,0.9,0.6c0,0.1,0,0.2-0.1,0.3
		c-0.1,0.1-0.3,0.1-0.5,0.1c-0.5,0-1.1-0.2-1.6-0.6l-0.8,1.4c0.6,0.5,1.5,0.8,2.3,0.8c1,0,1.8-0.3,2.3-0.8c0.3-0.4,0.5-0.8,0.5-1.4
		c0-1-0.6-1.6-1.7-1.9c-0.5-0.1-0.7-0.2-0.8-0.3c-0.1-0.1-0.1-0.1-0.1-0.2c0-0.1,0-0.2,0.1-0.3c0.1-0.1,0.3-0.2,0.5-0.2
		c0.4,0,0.8,0.2,1.2,0.4L24.3,30.8L24.3,30.8z M30,34.5c-0.2,0.4-0.6,0.7-1.1,0.7c-0.8,0-1.3-0.6-1.3-1.2h4.3v-0.2
		c0-2-1.1-3.6-3.2-3.6c-2.1,0-3.2,1.6-3.2,3.3c0,1.9,1.5,3.2,3.3,3.2c1.5,0,2.4-0.8,2.8-1.6L30,34.5L30,34.5z M28.7,31.8
		c0.7,0,1,0.4,1.1,0.9h-2.3C27.6,32.2,28,31.8,28.7,31.8L28.7,31.8z M33,30.4V34c0,1.6,1.1,2.9,3.1,2.9c2.1,0,3.1-1.2,3.1-2.9v-3.6
		h-2.1v3.4c0,0.8-0.4,1.2-1.1,1.2c-0.7,0-1-0.5-1-1.2v-3.4H33L33,30.4z M42.8,36.6v-3.5c0-0.6,0.3-1.1,1-1.1c0.3,0,0.9,0.2,0.9,1
		v3.5h2.1v-3.5c0-0.6,0.3-1.1,1-1.1c0.3,0,0.9,0.2,0.9,1v3.5h2.1v-4c0-1.4-0.7-2.3-2.1-2.3c-0.9,0-1.6,0.4-2.1,1.2
		c-0.2-0.6-0.8-1.2-1.8-1.2c-0.7,0-1.4,0.3-1.9,0.9v-0.8h-2.1v6.2H42.8L42.8,36.6z"/>
	<path d="M3.8,23.4c3.1,0,4.7-2.1,4.7-4.5c0-2.5-1.6-4.5-4.7-4.5H1v9H3.8L3.8,23.4z M3.2,21.4v-5.1h0.7c1.5,0,2.3,0.9,2.3,2.5
		c0,1.6-0.8,2.5-2.3,2.5H3.2L3.2,21.4z M13.9,21.3c-0.2,0.4-0.6,0.7-1.1,0.7c-0.8,0-1.3-0.6-1.3-1.2h4.3v-0.2c0-2-1.1-3.6-3.2-3.6
		c-2.1,0-3.2,1.6-3.2,3.3c0,1.9,1.5,3.2,3.3,3.2c1.5,0,2.4-0.8,2.8-1.6L13.9,21.3L13.9,21.3z M12.6,18.6c0.7,0,1,0.4,1.1,0.9h-2.3
		C11.5,19,11.9,18.6,12.6,18.6L12.6,18.6z M21.5,17.6C21,17.2,20.2,17,19.6,17C18,17,17,17.9,17,19.1c0,1,0.8,1.5,1.7,1.7
		c0.5,0.1,0.9,0.2,0.9,0.6c0,0.1,0,0.2-0.1,0.3c-0.1,0.1-0.3,0.1-0.5,0.1c-0.5,0-1.1-0.2-1.6-0.6l-0.8,1.4c0.6,0.5,1.5,0.8,2.3,0.8
		c1,0,1.8-0.3,2.3-0.8c0.3-0.4,0.5-0.8,0.5-1.4c0-1-0.6-1.6-1.7-1.9c-0.5-0.1-0.7-0.2-0.8-0.3C19.1,19.1,19,19.1,19,19
		c0-0.1,0-0.2,0.1-0.3c0.1-0.1,0.3-0.2,0.5-0.2c0.4,0,0.8,0.2,1.2,0.4L21.5,17.6L21.5,17.6z M22.8,17.2v6.2h2.1v-6.2H22.8L22.8,17.2
		z M22.7,15.3c0,0.7,0.6,1.2,1.2,1.2s1.2-0.6,1.2-1.2c0-0.7-0.6-1.2-1.2-1.2S22.7,14.6,22.7,15.3L22.7,15.3z M30.9,17.8
		C30.5,17.4,30,17,29.1,17c-1.7,0-2.9,1.5-2.9,3.2c0,1.7,1.2,3.2,3,3.2c0.8,0,1.5-0.3,1.8-0.9v0.8c0,0.8-0.4,1.4-1.3,1.4
		c-0.5,0-1-0.2-1.2-0.7h-2.2c0.1,0.6,0.4,1.1,0.9,1.5c0.6,0.6,1.4,0.8,2.4,0.8c2.3,0,3.4-1.4,3.4-3.5v-5.8h-2.1V17.8L30.9,17.8z
		 M28.3,20.2c0-0.7,0.6-1.3,1.3-1.3c0.8,0,1.3,0.6,1.3,1.4c0,0.7-0.5,1.3-1.3,1.3S28.3,21.1,28.3,20.2L28.3,20.2z M34.6,23.4h2.1
		v-3.3c0-0.7,0.4-1.3,1.1-1.3c0.6,0,0.9,0.5,0.9,1.2v3.3h2.1v-3.9c0-1.3-0.7-2.4-2.1-2.4c-1,0-1.6,0.5-1.9,0.9v-0.8h-2.1V23.4
		L34.6,23.4z"/>
	<path d="M0,1.1l3.6,9h1.7l3.6-9H6.6L4.5,6.6L2.4,1.1H0L0,1.1z M9.8,4v6.2h2.1V4H9.8L9.8,4z M9.6,2.1c0,0.7,0.6,1.2,1.2,1.2
		c0.7,0,1.2-0.6,1.2-1.2s-0.6-1.2-1.2-1.2C10.2,0.8,9.6,1.4,9.6,2.1L9.6,2.1z M17.6,5.8V4h-1.4v-2h-2.1v2h-1.2v1.8h1.2v4.3h2.1V5.8
		H17.6L17.6,5.8z M18.7,10.2h2.1V7.5c0-1,0.4-1.7,1.4-1.7c0.3,0,0.6,0.1,0.9,0.2V4c-0.2,0-0.3,0-0.4,0c-0.9,0-1.5,0.4-1.9,1.1V4
		h-2.1V10.2L18.7,10.2z M26,7.1c0-0.7,0.6-1.4,1.3-1.4c0.8,0,1.3,0.6,1.3,1.4c0,0.7-0.5,1.4-1.3,1.4S26,7.9,26,7.1L26,7.1z
		 M28.6,4.6c-0.4-0.5-0.9-0.8-1.8-0.8c-1.7,0-2.9,1.5-2.9,3.3c0,1.7,1.2,3.3,3,3.3c0.8,0,1.5-0.3,1.8-0.9v0.7h2.1V4h-2.1V4.6
		L28.6,4.6z"/>
</g>
</svg>
