<?xml version="1.0" encoding="utf-8"?>
<!-- Generator: Adobe Illustrator 15.1.0, SVG Export Plug-In . SVG Version: 6.00 Build 0)  -->
<!DOCTYPE svg PUBLIC "-//W3C//DTD SVG 1.1//EN" "http://www.w3.org/Graphics/SVG/1.1/DTD/svg11.dtd">
<svg version="1.1" id="Layer_1" xmlns="http://www.w3.org/2000/svg" xmlns:xlink="http://www.w3.org/1999/xlink" x="0px" y="0px"
	 width="100px" height="100px" viewBox="0 0 100 100" enable-background="new 0 0 100 100" xml:space="preserve">
<g>
	<path d="M50,16.43c18.488,0,33.57,15.084,33.57,33.57c0,18.488-15.082,33.57-33.57,33.57c-18.489,0-33.57-15.082-33.57-33.57
		C16.43,31.514,31.511,16.43,50,16.43z M50,79.289c16.153,0,29.289-13.136,29.289-29.289c0-16.153-13.136-29.289-29.289-29.289
		c-16.153,0-29.289,13.136-29.289,29.289C20.711,66.153,33.847,79.289,50,79.289z M65.86,53.893
		C64.889,62.067,59.148,67.808,50,67.808c-9.146,0-14.889-5.74-15.86-13.915h-4.379C30.635,64.306,38.421,72.089,50,72.089
		c11.481,0,19.268-7.881,20.238-18.196H65.86z M37.933,49.514V33.75h4.284v15.765H37.933z M57.783,49.514V33.75h4.284v15.765H57.783
		z"/>
</g>
</svg>
