<?xml version="1.0" encoding="utf-8"?>
<!-- Generator: Adobe Illustrator 15.1.0, SVG Export Plug-In . SVG Version: 6.00 Build 0)  -->
<!DOCTYPE svg PUBLIC "-//W3C//DTD SVG 1.1//EN" "http://www.w3.org/Graphics/SVG/1.1/DTD/svg11.dtd">
<svg version="1.1" id="Layer_1" xmlns="http://www.w3.org/2000/svg" xmlns:xlink="http://www.w3.org/1999/xlink" x="0px" y="0px"
	 width="100px" height="100px" viewBox="0 0 100 100" enable-background="new 0 0 100 100" xml:space="preserve">
<g>
	<path d="M92.179,89.062L75.091,71.976c5.155-5.904,8.29-13.611,8.29-22.032c0-18.487-15.082-33.571-33.571-33.571
		c-18.487,0-33.57,15.084-33.57,33.571s15.083,33.57,33.57,33.57c8.539,0,16.344-3.222,22.28-8.505l17.071,17.07L92.179,89.062z
		 M20.521,49.943c0-16.153,13.136-29.289,29.289-29.289s29.289,13.136,29.289,29.289c0,16.151-13.136,29.289-29.289,29.289
		S20.521,66.095,20.521,49.943z"/>
</g>
</svg>
